# xmcd
#
# Track frame offsets:
#   150
#   21764
#   37768
#   50263
#   73420
#   87682
#   100580
#   121734
#   141679
#   154192
#   168627
#   181516
#   198601
#   212382
#
# Disc length: 2956 seconds
#
# Revision: 0
# Processed by: cddbd v1.5.1PL2 Copyright (c) Steve Scherf et al.
# Submitted via: GXTranscoder 2.0.1939
#
DISCID=c00b8a0e
DTITLE=Jonny Hill - Mein Portrait
DYEAR=1900
DGENRE=Country
TTITLE0=Ruf Teddybär eins-vier
TTITLE1=Solang dein Traum dich trägt
TTITLE2=Idole und Freunde
TTITLE3=Tommy und Strolch
TTITLE4=Wer wie ich viel unterwegs war
TTITLE5=Mein Lied für Dich
TTITLE6=Papillon
TTITLE7=Dein erster Brief
TTITLE8=Es war schön
TTITLE9=In dem kleinen Haus am See
TTITLE10=Es sind nur Errinnerungen
TTITLE11=Wo der Mond versinkt
TTITLE12=Ich lösche das Licht aus
TTITLE13=Papa, ich bin Teddybär
EXTD=
EXTT0=
EXTT1=
EXTT2=
EXTT3=
EXTT4=
EXTT5=
EXTT6=
EXTT7=
EXTT8=
EXTT9=
EXTT10=
EXTT11=
EXTT12=
EXTT13=
PLAYORDER=
